<?xml version="1.0" encoding="UTF-8"?>
<!DOCTYPE svg PUBLIC "-//W3C//DTD SVG 1.1//EN" "http://www.w3.org/Graphics/SVG/1.1/DTD/svg11.dtd">
<svg xmlns="http://www.w3.org/2000/svg" version="1.1" width="64px" height="64px" style="shape-rendering:geometricPrecision; text-rendering:geometricPrecision; image-rendering:optimizeQuality; fill-rule:evenodd; clip-rule:evenodd" xmlns:xlink="http://www.w3.org/1999/xlink">
<g><path style="opacity:0.465" fill="#060606" d="M 44.5,9.5 C 38.5972,5.59329 32.2638,4.59329 25.5,6.5C 24.5,6.5 23.5,6.5 22.5,6.5C 16.2713,9.07212 11.2713,13.0721 7.5,18.5C 6.66175,18.8417 6.32842,19.5084 6.5,20.5C 3.89077,25.7469 2.89077,31.4136 3.5,37.5C 3.5,38.1667 3.5,38.8333 3.5,39.5C 4.85449,43.3907 6.68783,47.0574 9,50.5C 10.7772,52.7899 12.9438,54.4566 15.5,55.5C 15.8333,56.5 16.5,57.1667 17.5,57.5C 23.6349,60.4702 29.9682,61.4702 36.5,60.5C 37.1667,60.5 37.5,60.1667 37.5,59.5C 43.7493,58.4282 48.916,55.4282 53,50.5C 53.2692,53.2798 52.1025,55.4464 49.5,57C 43.8647,60.4869 37.8647,62.6536 31.5,63.5C 30.8333,63.5 30.1667,63.5 29.5,63.5C 8.39932,59.6737 -0.767345,47.007 2,25.5C 7.91207,8.78576 19.7454,1.61909 37.5,4C 42.7754,4.96783 47.1087,7.46783 50.5,11.5C 50.1667,11.8333 49.8333,12.1667 49.5,12.5C 48.0603,11.0476 46.3936,10.0476 44.5,9.5 Z"/></g>
<g><path style="opacity:0.862" fill="#061507" d="M 22.5,6.5 C 23.5,6.5 24.5,6.5 25.5,6.5C 27.2516,8.24595 28.5849,10.2459 29.5,12.5C 28.7901,17.7317 28.1235,23.0651 27.5,28.5C 26.1667,29.1667 26.1667,29.8333 27.5,30.5C 27.5,30.8333 27.5,31.1667 27.5,31.5C 27.5,32.8333 27.5,34.1667 27.5,35.5C 24.8333,35.8333 24.8333,36.1667 27.5,36.5C 27.5,40.8333 27.5,45.1667 27.5,49.5C 24.9949,51.0114 22.3283,52.3447 19.5,53.5C 20.0434,42.8414 20.3767,32.1747 20.5,21.5C 21.3328,17.6539 22.3328,13.8205 23.5,10C 23.3517,8.74407 23.0184,7.5774 22.5,6.5 Z"/></g>
<g><path style="opacity:0.789" fill="#050f07" d="M 29.5,12.5 C 30.4098,14.0188 31.2432,15.6854 32,17.5C 32.8159,16.1772 33.9826,15.5106 35.5,15.5C 35.8732,20.301 35.8732,25.301 35.5,30.5C 34.3523,29.105 33.3523,29.2716 32.5,31C 33.448,31.4828 34.448,31.6495 35.5,31.5C 35.5,31.8333 35.5,32.1667 35.5,32.5C 35.5,32.8333 35.5,33.1667 35.5,33.5C 34.1667,33.8333 34.1667,34.1667 35.5,34.5C 34.7758,42.4792 34.4425,50.4792 34.5,58.5C 31.4625,55.9399 29.6292,52.6065 29,48.5C 28.6174,49.056 28.1174,49.3893 27.5,49.5C 27.5,45.1667 27.5,40.8333 27.5,36.5C 27.5,36.1667 27.5,35.8333 27.5,35.5C 27.5,34.1667 27.5,32.8333 27.5,31.5C 28.8333,31.1667 28.8333,30.8333 27.5,30.5C 27.5,29.8333 27.5,29.1667 27.5,28.5C 28.1235,23.0651 28.7901,17.7317 29.5,12.5 Z M 29.5,27.5 C 32.7973,27.3287 33.1306,27.9954 30.5,29.5C 29.7025,29.0431 29.3691,28.3764 29.5,27.5 Z M 32.5,35.5 C 34.7602,36.2376 34.9269,37.2376 33,38.5C 32.5172,37.552 32.3505,36.552 32.5,35.5 Z M 29.5,36.5 C 30.7733,37.0768 30.7733,37.7435 29.5,38.5C 28.537,38.0302 28.537,37.3635 29.5,36.5 Z"/></g>
<g><path style="opacity:0.741" fill="#050a06" d="M 40.5,13.5 C 40.3802,22.4401 40.3802,31.1068 40.5,39.5C 39.9598,40.7481 39.2931,41.9148 38.5,43C 39.3805,43.7083 40.0472,44.5416 40.5,45.5C 39.863,49.5776 38.5297,53.4109 36.5,57C 37.2524,57.6708 37.5858,58.5041 37.5,59.5C 37.5,60.1667 37.1667,60.5 36.5,60.5C 35.8333,59.8333 35.1667,59.1667 34.5,58.5C 34.4425,50.4792 34.7758,42.4792 35.5,34.5C 35.5,34.1667 35.5,33.8333 35.5,33.5C 36.8333,33.1667 36.8333,32.8333 35.5,32.5C 35.5,32.1667 35.5,31.8333 35.5,31.5C 35.5,31.1667 35.5,30.8333 35.5,30.5C 35.8732,25.301 35.8732,20.301 35.5,15.5C 36.7804,14.0687 38.4471,13.4021 40.5,13.5 Z"/></g>
<g><path style="opacity:0.885" fill="#061b08" d="M 7.5,18.5 C 12.2718,17.9634 16.6051,18.9634 20.5,21.5C 20.3767,32.1747 20.0434,42.8414 19.5,53.5C 17.8958,54.287 17.2291,55.6203 17.5,57.5C 16.5,57.1667 15.8333,56.5 15.5,55.5C 15.074,50.9679 16.074,46.8012 18.5,43C 15.9699,42.6207 13.6365,41.7874 11.5,40.5C 11.5,37.8333 11.5,35.1667 11.5,32.5C 12.4734,32.0133 13.4734,31.5133 14.5,31C 12.8726,28.2458 11.3726,25.4125 10,22.5C 9.18405,21.1772 8.01739,20.5106 6.5,20.5C 6.32842,19.5084 6.66175,18.8417 7.5,18.5 Z"/></g>
<g><path style="opacity:0.324" fill="#060606" d="M 44.5,9.5 C 45.7983,14.4769 44.7983,18.9769 41.5,23C 44.9518,24.2257 48.2852,25.7257 51.5,27.5C 53.7113,32.1318 52.378,34.4651 47.5,34.5C 48.3461,39.3741 50.3461,43.7074 53.5,47.5C 48.8644,48.8853 44.5311,48.2186 40.5,45.5C 40.0472,44.5416 39.3805,43.7083 38.5,43C 39.2931,41.9148 39.9598,40.7481 40.5,39.5C 40.3802,31.1068 40.3802,22.4401 40.5,13.5C 41.5,11.8333 42.8333,10.5 44.5,9.5 Z"/></g>
<g><path style="opacity:0.767" fill="#062009" d="M 11.5,32.5 C 11.5,35.1667 11.5,37.8333 11.5,40.5C 8.91573,38.8454 6.24906,38.5121 3.5,39.5C 3.5,38.8333 3.5,38.1667 3.5,37.5C 5.65227,35.0152 8.31894,33.3485 11.5,32.5 Z"/></g>
</svg>
